# xmcd
# 
# Track frame offsets:
#     150
#     20460
#     35975
#     54102
#     75392
#     102452
#     118877
#     131715
#     150357
#     175230
#     193850
#     207170
#     245157
#     282810
# 
# Disc length: 3993
# 
# Revision: 14
# Processed by: cddbd v1.5.2PL0 Copyright (c) Steve Scherf et al.
# Submitted via: fre:ac v1.1beta1pre5
# 
DISCID=c30f970e
DTITLE=Rory Gallagher - Etched in Blue (compilation)
DYEAR=1998
DGENRE=Blues-Rock
TTITLE0=Loanshark Blues
TTITLE1=Bought and Sold
TTITLE2=Bad Penny
TTITLE3=Cruise On Out
TTITLE4=Crest Of A Wave
TTITLE5=I'm Not Surprised
TTITLE6=Unmilitary Two-Step
TTITLE7=Alexis
TTITLE8=Edged In Blue
TTITLE9=They Don't Make Them Like You Anymore
TTITLE10=The Devil Made Me Do It
TTITLE11=Too Much Alchohol (Live)
TTITLE12=I Could Have Had Religion (Live)
TTITLE13=Shin Kicker (Live)
EXTD=YEAR: 1998
EXTT0=
EXTT1=
EXTT2=
EXTT3=
EXTT4=
EXTT5=
EXTT6=
EXTT7=
EXTT8=
EXTT9=
EXTT10=
EXTT11=
EXTT12=
EXTT13=
PLAYORDER=
